<svg width="491.3" height="90.428" viewBox="0 0 491.3 90.428" xmlns="http://www.w3.org/2000/svg"><g id="svgGroup" stroke-linecap="round" fill-rule="evenodd" font-size="9pt" stroke="#1a1a1a" stroke-width="0.25mm" fill="#FFFFFF" style="stroke:#1a1a1a;stroke-width:0.25mm;fill:#FFFFFF"><path d="M 192 87.7 Q 188 88.4 185.05 87.55 Q 182.1 86.7 179.8 84.8 Q 176.1 81.8 173.7 76.95 Q 171.3 72.1 169 67.7 Q 168.2 68.9 167.15 70.95 Q 166.1 73 164.85 75.1 Q 163.6 77.2 162.3 78.8 Q 161.6 79.6 160.2 80.85 Q 158.8 82.1 158 82.1 Q 157.1 82.1 156.65 81.6 Q 156.2 81.1 155.8 80.5 Q 155.3 79.8 154.7 79.25 Q 154.1 78.7 152.8 78.8 Q 153.6 77.5 155.15 76.75 Q 156.7 76 157.1 74.9 Q 157.5 76.1 156.85 76.55 L 156.2 77 Q 157.5 77.1 158.2 75.9 Q 158.9 74.7 159.4 73.3 Q 159.6 72.8 159.75 72.4 Q 159.9 72 160.1 71.7 Q 161 70 161.9 68.2 Q 162.8 66.4 163.5 64.9 Q 163.6 64.5 163.6 64.05 L 163.6 63.1 Q 163.5 62.4 163.5 62 Q 164 62 164.15 61.6 Q 164.3 61.2 164.4 60.7 Q 164.5 59.7 164.7 59.5 Q 164 56.6 162.8 54.25 Q 161.6 51.9 160.7 49.1 Q 159 49.4 158.1 50.4 Q 157.2 51.4 156.7 52.8 Q 156.1 54.7 156.1 57.25 Q 156.1 59.8 155.8 62.4 Q 155 69.5 153.15 75.3 Q 151.3 81.1 146.7 83.9 Q 144.2 83.1 142 82.05 Q 139.8 81 138.4 78.9 Q 137.5 77.5 137.15 75.6 Q 136.8 73.7 136.45 72.05 Q 136.1 70.4 135.3 69.6 Q 135 70.6 134.25 72.85 Q 133.5 75.1 132.4 77.05 Q 131.3 79 129.9 79.3 Q 130.1 81.2 128.6 82.2 Q 127.1 83.2 125.25 83.15 Q 123.4 83.1 122.4 82 Q 122.4 81.8 122.75 81.5 Q 123.1 81.2 123.5 80.9 Q 124 80.6 124.35 80.3 Q 124.7 80 124.7 79.7 Q 124.6 79.4 124.3 79.6 Q 123.9 79.7 123.7 79.7 Q 123.8 79.5 123.9 79.2 Q 124.2 78.6 124.55 78.15 Q 124.9 77.7 125.6 77.9 Q 125.7 75.6 126.8 73.75 Q 127.9 71.9 128.3 70 Q 126.1 70.6 122.8 71.85 Q 119.5 73.1 116.3 74.9 Q 113.1 76.7 111.2 79.3 Q 111 79.3 110.7 79.1 Q 110.3 78.9 110 79 Q 109.6 79.4 109.45 80.1 Q 109.3 80.8 109.1 81.5 Q 106.1 82.2 103.6 80.5 Q 101.1 78.8 99.4 76 Q 97.7 73.2 96.8 70.8 Q 97.8 70.4 98.95 70.55 Q 100.1 70.7 101.2 71 Q 102.2 71.2 103.15 71.4 Q 104.1 71.6 105.1 71.5 Q 108 71.3 110.6 69.95 Q 113.2 68.6 115.5 67.5 Q 115.5 64.5 115.55 62.25 Q 115.6 60 115.7 58 Q 115.7 55.2 115.75 52.35 Q 115.8 49.5 115.7 45.3 Q 113.4 45.4 111.25 46.35 Q 109.1 47.3 106.2 47.5 Q 105 46.2 103.45 44.25 Q 101.9 42.3 100.8 39.8 Q 99.7 37.3 99.8 34.6 Q 102.4 35.3 104.3 35.85 Q 106.2 36.4 108 38.2 Q 109.8 38.4 111.45 38.05 Q 113.1 37.7 114.3 37.4 Q 115.3 37.2 115.7 37.1 Q 116.5 29.1 115.05 23.15 Q 113.6 17.2 111.7 11.9 Q 111.5 11.4 111.35 10.9 Q 111.2 10.4 111 9.9 Q 112.7 9 113.6 9.45 Q 114.5 9.9 115.5 10.9 L 116.4 11.8 Q 116.9 12.3 117.5 12.7 Q 119.4 13.9 121.3 15.5 Q 123.2 17.1 123.95 19.25 Q 124.7 21.4 123.3 24.5 Q 123.8 26 123.65 27.35 Q 123.5 28.7 123.2 30.1 L 122.8 32.1 Q 122.6 33.1 122.7 34.2 Q 125 33.7 126.9 35.05 Q 128.8 36.4 130.1 37.8 Q 130.1 38.2 130 38.45 Q 129.9 38.7 129.8 38.9 Q 129.6 39.2 129.5 39.6 Q 129.4 40 129.5 40.6 Q 128.7 40.7 128.05 41.05 Q 127.4 41.4 126.8 41.8 Q 126 42.3 125.15 42.75 Q 124.3 43.2 123 43.1 Q 122.8 44 122.65 44.8 Q 122.5 45.6 122.3 46.4 Q 121.9 48.2 121.65 49.8 Q 121.4 51.4 121.8 53.5 Q 121.9 54 121.65 54.15 Q 121.4 54.3 121.2 54.3 Q 120.5 54.5 120.6 55 Q 120.9 55 121.2 54.85 L 121.5 54.7 Q 121 56.7 120.75 59.55 Q 120.5 62.4 120.3 64.3 Q 122.5 64.4 124.8 64.55 Q 127.1 64.7 129.5 65.7 Q 130.6 63.1 130.9 59.25 Q 131.2 55.4 131.6 51.7 Q 131.6 50.9 131.05 50.7 Q 130.5 50.5 129.95 50.35 Q 129.4 50.2 129.2 49.6 Q 129.6 49.5 129.85 49.7 L 130.1 49.9 Q 131.5 48.2 131.9 45.1 Q 132.3 42 131.6 39.2 Q 131.3 38 130.75 36.9 Q 130.2 35.8 129.5 34.7 Q 128.8 33.4 128.2 32.15 Q 127.6 30.9 127.6 29.5 Q 128.3 28.7 128.8 28.55 Q 129.3 28.4 129.7 27.7 Q 132.6 29 135.4 29.05 Q 138.2 29.1 141.1 28.7 Q 144.1 28.2 147.2 27.45 Q 150.3 26.7 153.6 26.6 Q 153.3 23 152.55 19.65 Q 151.8 16.3 150.7 13.3 Q 149.5 9.8 148 6.85 Q 146.5 3.9 145 1.5 Q 146.6 -0.1 148 0.65 Q 149.4 1.4 150.9 2.6 Q 151.3 3 151.75 3.35 Q 152.2 3.7 152.6 4 Q 154 5 155.6 5.9 Q 157.2 6.8 158.4 8.15 Q 159.6 9.5 159.7 11.9 Q 159.7 12.5 159.55 13 Q 159.4 13.5 159.2 14 Q 159.1 14.4 158.95 14.75 Q 158.8 15.1 158.8 15.5 Q 158.7 16.7 158.85 17.95 Q 159 19.2 159.2 20.5 Q 159.4 21.8 159.55 23.1 Q 159.7 24.4 159.7 25.8 Q 162.2 25 165.15 25.35 Q 168.1 25.7 170.8 27.05 Q 173.5 28.4 175 30.8 Q 172.7 31.8 170.65 31.85 Q 168.6 31.9 166.6 31.8 Q 165.3 31.7 163.95 31.7 Q 162.6 31.7 161.3 31.9 Q 162.3 37.4 163.9 42.7 Q 165.5 48 167.1 52.8 Q 168.6 50.7 168.45 48.55 Q 168.3 46.4 167.35 44.45 Q 166.4 42.5 165.2 41.2 Q 165.5 40.7 165.95 40.3 Q 166.4 39.9 166.5 39.1 Q 170.9 39.1 172.9 41.4 Q 174.9 43.7 176.6 46.9 Q 174.9 50.2 174 54.45 Q 173.1 58.7 171.7 62.3 Q 173.1 66.8 175.85 69.75 Q 178.6 72.7 181.5 75.5 Q 182.8 73.6 182.85 70.85 Q 182.9 68.1 182.7 65 Q 182.6 63 182.45 61.05 Q 182.3 59.1 182.4 57.3 Q 183.4 59.4 184.6 61.1 Q 185.8 62.8 186.1 65.4 Q 186.5 65.2 186.2 64 Q 186.1 63.5 186.05 63.05 Q 186 62.6 186.1 62.3 Q 186.1 62.4 186.2 62.5 Q 186.7 63.4 187.25 64.15 Q 187.8 64.9 188.6 64.8 Q 189.4 67.9 189.65 71.1 Q 189.9 74.3 189.8 77.3 Q 190.1 77.2 190.25 76.35 L 190.4 75.5 Q 190.6 76.4 190.85 77.3 Q 191.1 78.2 191.4 79.1 Q 192 81.3 192.4 83.4 Q 192.8 85.5 192 87.7 Z M 292 48.2 Q 292 48.7 291.3 49 Q 291 49.1 290.8 49.3 Q 290.6 49.5 290.6 49.9 Q 288 49.7 285.8 49.5 Q 283.6 49.3 281.5 49.2 Q 276.8 48.7 272.45 48.45 Q 268.1 48.2 262.4 48.7 Q 261.4 55.6 259.3 61.3 Q 257.2 67 254.5 71.7 Q 257 72.6 258.7 74.15 Q 260.4 75.7 262.9 76.6 Q 264.3 78.3 266.85 80.2 Q 269.4 82.1 271.65 84.5 Q 273.9 86.9 274.3 90 Q 270.9 90.6 266.75 89.7 Q 262.6 88.8 260.3 86.9 Q 258.6 85.4 257.45 83.1 Q 256.3 80.8 254.95 78.8 Q 253.6 76.8 251.1 76.2 Q 249 78.1 245.85 80.15 Q 242.7 82.2 238.95 83.95 Q 235.2 85.7 231.2 86.55 Q 227.2 87.4 223.3 86.8 Q 219.4 86.2 216 83.6 Q 221.1 83 226.4 81.5 Q 231.7 80 236.4 77.6 Q 241.1 75.2 244.4 71.9 Q 242.2 69.6 239.6 68.55 Q 237 67.5 233.8 66.6 Q 232.5 66.8 232.15 68 Q 231.8 69.2 231.5 70.4 Q 228.9 70.8 226.4 69.5 Q 223.9 68.2 222.95 65.85 Q 222 63.5 223.7 61 Q 224.4 60.7 225.25 60.65 Q 226.1 60.6 227.1 60.6 Q 228.9 58.3 229.45 55.9 Q 230 53.5 231.1 50.6 Q 229.5 50.7 227.7 50.8 Q 225.9 50.9 223.8 51.1 Q 220.4 51.5 218.2 52.75 Q 216 54 213.1 55.4 Q 211.6 56.1 209.9 55.45 Q 208.2 54.8 206.5 54 Q 205.8 53.6 205.2 53.3 Q 204.6 53 204 52.8 Q 204 51.3 203.35 50.55 Q 202.7 49.8 201.8 49.2 Q 201.1 48.7 200.5 48.1 Q 199.9 47.5 199.7 46.4 Q 201.4 46.3 202.95 46.3 Q 204.5 46.3 205.9 46.4 Q 208.1 46.4 210.2 46.35 Q 212.3 46.3 214.7 45.8 Q 212.5 44.8 210.35 43.65 Q 208.2 42.5 206.7 40.75 Q 205.2 39 204.8 36.1 Q 206.8 35.5 208.7 34.25 Q 210.6 33 211.7 31.05 Q 212.8 29.1 212.3 26.5 Q 212 25 210.85 24.25 Q 209.7 23.5 208.6 22.65 Q 207.5 21.8 207.3 20.1 Q 209 19.9 209.8 19.05 Q 210.6 18.2 211.8 17.6 Q 214.2 17.9 215.6 18.9 Q 216.2 18.6 216.6 18.1 Q 217 17.6 217.7 17.5 Q 221.2 17.4 223.65 17.1 Q 226.1 16.8 228.3 16.4 Q 231.1 16 233.9 15.75 Q 236.7 15.5 241 15.8 Q 241.3 14.5 241.4 13.05 Q 241.5 11.6 241.6 10 Q 238.4 8.4 235.7 6.9 Q 233 5.4 231 2.3 Q 231.8 1.8 233.25 1.9 Q 234.7 2 235.2 2.6 Q 237.2 1.3 239.85 1.05 Q 242.5 0.8 244.9 1.75 Q 247.3 2.7 248.65 4.85 Q 250 7 249.3 10.5 Q 248.6 11.5 247.95 12.55 Q 247.3 13.6 247.3 15.3 Q 248.2 15.3 249.55 15.25 Q 250.9 15.2 252.5 15.1 Q 254.7 14.9 257.2 14.8 Q 259.7 14.7 262.3 14.7 Q 262.8 14.7 263.3 14.75 Q 263.8 14.8 264.2 14.9 Q 264.8 14.9 265.3 14.95 Q 265.8 15 266.2 15 Q 267 14.9 267.65 14.75 Q 268.3 14.6 268.9 14.4 Q 269.8 14.1 270.65 13.95 Q 271.5 13.8 272.4 13.9 Q 275 14.3 276.7 15.5 Q 278.4 16.7 280.8 17.1 Q 281.3 19.8 282.45 22.55 Q 283.6 25.3 284.3 27.6 Q 284 28.2 283.65 28.6 Q 283.3 29 282.6 29.7 Q 282.4 29.9 281.75 30.2 Q 281.1 30.5 280.9 30.7 Q 279.5 32.2 278.25 34.05 Q 277 35.9 275.1 37.3 Q 272.9 38.9 270.85 38 Q 268.8 37.1 266.8 35.8 Q 265.9 35.2 265 34.65 Q 264.1 34.1 263.2 33.7 Q 265.8 31.5 267.45 28.15 Q 269.1 24.8 270 21.9 Q 269.9 21.6 269.3 21.5 Q 268.9 21.4 268.65 21.25 Q 268.4 21.1 268.5 20.5 Q 262.1 19.7 254.2 19.75 Q 246.3 19.8 238.2 20.6 Q 230.1 21.4 223 22.7 Q 219 26.6 218.2 32.05 Q 217.4 37.5 218.1 43.7 Q 217.6 45.2 216.1 45.5 Q 218.6 45.7 221.4 45.4 Q 224.2 45.1 226.9 44.8 Q 228.3 44.6 229.6 44.45 Q 230.9 44.3 232.1 44.2 Q 233.8 41.9 234.3 38.6 Q 234.8 35.3 235 31.2 Q 234.8 31 234.55 30.7 Q 234.3 30.4 234 30.1 Q 232.9 28.9 231.75 27.35 Q 230.6 25.8 230.7 24.1 Q 235.8 23.2 239.5 25.55 Q 243.2 27.9 244 31.4 Q 242.4 32.7 241.9 34.8 Q 241.4 36.9 241.1 39.05 Q 240.8 41.2 239.7 42.7 Q 241.4 43.4 244.5 43.3 Q 247.6 43.2 250.1 42.8 Q 250.5 42.4 250.4 42.3 Q 250.3 42.2 250.1 42.2 Q 249.5 42.1 249.4 41.8 Q 250.1 40.2 251.75 39.85 Q 253.4 39.5 255 39.7 Q 256.4 39.9 257.65 41 Q 258.9 42.1 260.6 42.6 Q 263.1 43.4 265.5 43.05 Q 267.9 42.7 269.7 42.3 Q 270.4 42.2 270.7 42.1 Q 270.8 41.8 270.3 41.8 Q 270.4 41.5 270.55 41.55 Q 270.7 41.6 270.7 41.8 Q 271.5 41 273.75 40.65 Q 276 40.3 277.6 40.6 Q 278.2 40.7 278.9 41.4 Q 279.6 42.1 280.1 42.3 Q 280.4 42.4 280.8 42.35 Q 281.2 42.3 281.6 42.2 Q 282 42.1 282.5 42.05 Q 283 42 283.5 42.2 Q 283.6 42.2 283.7 42.7 Q 283.8 43.2 283.9 43.3 Q 284.5 43.7 285.9 43.75 Q 287.3 43.8 288.1 44.2 Q 288.2 44.3 288.3 44.7 Q 288.4 45.1 288.5 45.2 Q 289.6 45.7 290.6 46.25 Q 291.6 46.8 292 48.2 Z M 346.1 39 L 345.5 39.6 Q 348.6 37.8 352.2 37.95 Q 355.8 38.1 358.85 39.65 Q 361.9 41.2 363.3 43.7 Q 361.1 45 357.6 45 Q 354.1 45 351.1 45.5 Q 351.1 45 350.9 45.1 L 350.55 45.1 Q 350.4 45.1 350.4 44.5 L 349.8 45.15 Q 349.2 45.8 346.9 45.9 Q 348.1 47.3 348.15 49.15 Q 348.2 51 348 52.9 Q 348 54 347.95 55.1 Q 347.9 56.2 348 57.2 Q 349 57.9 349.9 57.65 Q 350.8 57.4 351.6 57 Q 352.1 56.8 352.55 56.6 Q 353 56.4 353.5 56.4 Q 355.5 56.4 357.2 57.45 Q 358.9 58.5 360.5 59.85 Q 362.1 61.2 363.6 62.2 Q 362.1 63.5 359.6 63.7 Q 357.1 63.9 354.5 63.9 Q 352.6 63.9 350.9 64 Q 349.2 64.1 347.8 64.5 Q 347.9 66.4 347.8 68.2 Q 347.7 70 347.6 71.7 Q 347.5 73 347.45 74.3 Q 347.4 75.6 347.4 76.8 Q 347.8 76.8 348.5 76.9 Q 352 77.1 356 77.1 Q 360 77.1 362.6 75.6 Q 368.3 75.6 372.1 77.8 Q 375.9 80 378.5 83.2 Q 376.9 85.3 374.65 85.15 Q 372.4 85 369.7 84.4 Q 368.5 84.1 367.25 83.85 Q 366 83.6 364.7 83.5 Q 358.7 83.1 351.6 83.4 Q 344.5 83.7 337.95 84.35 Q 331.4 85 326.8 85.8 Q 324.3 87.8 322.2 86.85 Q 320.1 85.9 318.1 84.1 Q 315.9 81.5 314.2 80.6 L 312.5 79.7 Q 316.4 79.4 321.35 79 Q 326.3 78.6 331.4 78.2 Q 336.5 77.8 340.8 77.6 L 340.8 75.4 L 340.8 72.7 L 340.8 68.5 Q 340.8 66.3 340.9 64.3 Q 337.9 65 335.5 65.2 Q 333.1 65.4 331.4 67.1 Q 328.2 66 325.9 63.9 Q 323.6 61.8 321.9 59 Q 325.1 59.6 328.75 59.4 Q 332.4 59.2 336.6 58.7 Q 337.5 58.6 338.55 58.5 Q 339.6 58.4 340.6 58.3 Q 340.4 55.5 340.4 52.55 Q 340.4 49.6 339.8 47.1 Q 336.2 47.1 333.8 46.8 Q 331.4 46.5 329.45 45.6 Q 327.5 44.7 325.2 43 Q 321.3 47 317.2 50.95 Q 313.1 54.9 309 58.9 Q 308.4 58.6 308.2 58.7 Q 308 58.8 307.8 59 Q 307.6 59.2 307.3 59.35 Q 307 59.5 306.1 59.3 Q 305.2 61.4 302.35 62.15 Q 299.5 62.9 296.2 61.9 Q 297.3 60.9 298.15 59.7 Q 299 58.5 300.8 58.3 Q 301.7 56.1 303 54.85 Q 304.3 53.6 306.2 52.9 Q 306.8 51.8 307.75 51.15 Q 308.7 50.5 309.1 49.2 Q 309.2 49.1 309.5 49 Q 309.7 48.8 310 48.7 Q 310.3 48.6 311 48.9 Q 311.3 48.6 311.35 48.05 Q 311.4 47.5 311.3 46.9 Q 315.1 42.4 319.15 38.3 Q 323.2 34.2 325.5 29 Q 325.9 28.2 327.35 26.05 Q 328.8 23.9 330.75 21.15 Q 332.7 18.4 334.4 15.6 Q 336.1 12.8 336.9 10.6 Q 336.8 9.2 335.65 8.05 Q 334.5 6.9 333.9 5.3 Q 334.9 4.5 335.9 4.55 Q 336.9 4.6 337.9 4.8 Q 338.7 5 339.55 5.1 Q 340.4 5.2 341.3 4.9 Q 342.1 5.9 343.3 6.5 Q 344.5 7.1 345.6 7.8 Q 346.1 9.8 347.35 11 Q 348.6 12.2 350.2 13 Q 354.3 18.2 358.85 22.95 Q 363.4 27.7 369.5 30.9 Q 369.8 31.9 370.65 32.3 Q 371.5 32.7 372.4 33.05 Q 373.3 33.4 373.5 34.5 Q 375.8 35.2 377.1 36 Q 378.4 36.8 379.7 38.4 Q 380.2 38.4 380.65 38.6 Q 381.1 38.8 381.6 39.2 Q 382.2 39.6 382.95 39.95 Q 383.7 40.3 384.5 40.3 Q 385.1 41.6 385.95 42.5 Q 386.8 43.4 387.8 44.2 Q 389.4 45.6 390.6 47.3 Q 391.8 49 391.2 52.5 Q 389.2 55 385.85 55.65 Q 382.5 56.3 378.7 55 Q 378.1 54.8 377.55 54.15 Q 377 53.5 376.4 53.4 Q 376.1 53.3 375.8 53.35 Q 375.5 53.4 375.2 53.4 Q 374.6 53.5 374.4 53.4 L 374.4 52.9 Q 374.5 52.4 374.4 52.4 Q 373.7 51.8 372.7 51.8 Q 371.7 51.8 371.2 51.5 Q 365.1 42 358.45 32.95 Q 351.8 23.9 345 15.1 Q 340.5 21.5 336.1 27.9 Q 331.7 34.3 326.8 40.3 Q 329.5 41.2 333 40.8 Q 336.5 40.4 340.1 39.8 Q 341.7 39.6 343.2 39.35 Q 344.7 39.1 346.1 39 Z M 491.3 16 Q 490.8 17.6 489.35 18.2 Q 487.9 18.8 486.3 18.95 Q 484.7 19.1 483.6 19.5 Q 482.6 25.1 481.5 30.65 Q 480.4 36.2 478.9 41.3 Q 477.7 41.9 476.75 41.75 Q 475.8 41.6 474.8 41.2 Q 474.2 40.9 473.45 40.7 Q 472.7 40.5 471.8 40.4 Q 469.3 40.1 465.95 40.25 Q 462.6 40.4 459.2 40.7 Q 455.8 41 452.9 41.4 Q 452.2 41.5 451.55 41.65 Q 450.9 41.8 450.2 42 Q 449.1 42.3 447.9 42.55 Q 446.7 42.8 445.4 42.5 Q 444.9 42.4 444.55 42.15 Q 444.2 41.9 443.8 41.6 Q 443.3 41.2 442.75 40.9 Q 442.2 40.6 441.3 40.9 Q 439.6 39.6 439 36.65 Q 438.4 33.7 438.8 31.1 Q 437.1 31.2 436.3 32.15 Q 435.5 33.1 434.5 33.9 Q 434.5 35.5 434.55 37.25 Q 434.6 39 434.7 40.8 Q 434.9 45.2 434.85 49.75 Q 434.8 54.3 433.2 57.9 Q 430.3 58.7 427.95 57.5 Q 425.6 56.3 423.6 54.8 Q 423.2 54.5 423 54.4 Q 422.1 57 422.1 60.45 Q 422.1 63.9 422.2 67.8 Q 422.3 69.8 422.3 71.75 L 422.3 75.7 Q 422.3 76.6 422.2 77.45 Q 422.1 78.3 422 79.2 Q 421.8 81.3 421.8 83.4 Q 421.8 85.5 422.5 87.6 Q 422.2 88.3 421.65 88.35 Q 421.1 88.4 420.4 88.4 Q 419.8 88.3 419.5 88.3 Q 419.4 88.1 419.1 87.8 Q 417.1 85.6 415.45 83.25 Q 413.8 80.9 413.9 78.2 Q 414 77.8 414.45 77.85 Q 414.9 77.9 414.9 77.5 Q 415.7 72.7 415.9 66.15 Q 416.1 59.6 416.1 53.1 Q 416.1 49.7 416.15 46.4 Q 416.2 43.1 416.3 40.3 Q 415.7 39.6 415.6 38.45 Q 415.5 37.3 415.5 36 Q 415.5 34.9 415.45 33.9 Q 415.4 32.9 415.1 32.2 Q 413.8 32.5 412.3 32.75 Q 410.8 33 410.1 34 Q 410 35.3 410 36.7 L 410 39.7 Q 410 42.9 409.9 46.4 Q 409.8 49.9 409.1 52.9 Q 409.1 53.5 409.3 53.85 Q 409.5 54.2 409.8 54.5 Q 410.1 54.8 410.35 55.2 Q 410.6 55.6 410.5 56.3 Q 410 56.5 409.5 56.8 Q 409 57.1 408.8 57.7 Q 405.7 56.5 403.3 54.6 Q 400.9 52.7 399.5 49.7 Q 399.9 48.2 400.7 48.05 Q 401.5 47.9 402.5 47.3 L 402.7 45.5 Q 402.8 44.6 403 43.8 Q 403.3 42 403.5 40.15 Q 403.7 38.3 403.4 36.1 Q 402.7 34.6 400.95 34.2 Q 399.2 33.8 398.2 32.5 Q 398.2 32.1 399.4 32.1 Q 400.1 32.2 400.3 32.1 Q 400.4 31.6 399.8 31.3 Q 399.6 31.2 399.45 31.05 Q 399.3 30.9 399.5 30.4 Q 402.9 29.2 407 28.7 Q 411.1 28.2 415.1 27.5 Q 415.3 14 410.3 5.9 Q 410.4 5.2 410.95 5.15 Q 411.5 5.1 412.05 5 Q 412.6 4.9 412.6 4.1 Q 414.8 5.2 417.05 6.6 Q 419.3 8 421 10.05 Q 422.7 12.1 423 15.1 Q 423.1 16.4 422.95 17.9 Q 422.8 19.4 422.6 20.9 Q 422.4 22.4 422.2 23.95 Q 422 25.5 422.2 27 L 422.5 27 Q 423.1 26.9 423.65 26.7 Q 424.2 26.5 424.5 25.3 Q 426.4 26.2 429.1 26.3 Q 431.8 26.4 434.35 26.65 Q 436.9 26.9 438.4 28.4 Q 438.5 27.3 438.45 24.75 Q 438.4 22.2 437.9 20 L 437.3 19.7 Q 435.9 18.9 434.85 17.85 Q 433.8 16.8 434.8 14.6 Q 435.6 14.8 436.45 14.85 Q 437.3 14.9 438 14.9 L 439.2 14.9 Q 439.8 15 439.95 14.8 Q 440.1 14.6 440.2 14.3 Q 440.3 13.8 440.6 13.8 Q 445.8 13.1 451.35 12.5 Q 456.9 11.9 462.15 11.6 Q 467.4 11.3 471.6 11.6 Q 472 11.6 472.3 11.1 Q 472.4 10.9 472.6 10.75 Q 472.8 10.6 473.3 10.6 Q 476.5 10.7 479.7 11.25 Q 482.9 11.8 486.9 12.7 Q 487.1 14.4 488.5 14.95 Q 489.9 15.5 491.3 16 Z M 89.8 26 Q 87.7 26.7 84.6 26.75 Q 81.5 26.8 78.2 26.7 Q 75.1 26.6 72.15 26.65 Q 69.2 26.7 67.1 27.3 Q 66.4 30.2 66.2 33.65 Q 66 37.1 65.7 40.4 Q 67.9 41.6 69.8 41.05 Q 71.7 40.5 73.3 39.7 Q 74.3 39.2 75.15 38.85 Q 76 38.5 76.7 38.6 Q 79.7 38.9 82.7 40.5 Q 85.7 42.1 89.2 44 Q 88.3 46.2 86.3 46.4 Q 84.3 46.6 81.6 46.4 Q 80.4 46.3 79.15 46.2 Q 77.9 46.1 76.5 46.2 Q 70.1 46.5 63.75 47.45 Q 57.4 48.4 50.5 48.8 Q 49.5 48.9 49.15 49.6 Q 48.8 50.3 47.8 50.4 Q 44.1 50 41.4 48.45 Q 38.7 46.9 37.3 43.8 Q 43.1 42.5 48.5 42.1 Q 53.9 41.7 59 41.3 Q 59.3 39.5 59.3 37 Q 59.3 34.5 59.15 32.2 Q 59 29.9 58.8 28.7 Q 53.1 27.6 48.4 30.5 Q 44.7 29.6 41.65 27.85 Q 38.6 26.1 35.9 23.9 Q 36.8 23 38 22.8 Q 39.2 22.6 40.3 23.4 Q 45.5 22.6 50.6 22.4 Q 55.7 22.2 59 21 Q 58.5 15.1 57.75 10.2 Q 57 5.3 54.2 1.2 Q 54.1 0.7 54.55 0.35 Q 55 0 55.5 0 Q 56.8 1.5 58.85 2.65 Q 60.9 3.8 63.05 5 Q 65.2 6.2 66.75 7.75 Q 68.3 9.3 68.5 11.6 Q 68.6 12.5 68.3 13.3 Q 68 14.1 67.7 14.8 Q 67.2 15.9 66.85 17.2 Q 66.5 18.5 67 20.4 Q 69.1 21.1 70.9 20.6 Q 72.7 20.1 74.4 19.4 Q 75.4 19 76.35 18.65 Q 77.3 18.3 78.3 18.2 Q 80.2 18.1 82.35 19.45 Q 84.5 20.8 86.5 22.7 Q 88.5 24.6 89.8 26 Z M 37.9 54.5 Q 36.4 54.6 34.5 54.5 Q 34.2 54.4 33.8 54 Q 33.5 53.8 33.05 53.6 Q 32.6 53.4 31.5 53.5 Q 30.7 53.6 29.8 54 Q 28.9 54.4 27.8 54.7 Q 25.6 55.3 22.8 55.95 Q 20 56.6 17.55 57.25 Q 15.1 57.9 13.8 58.5 Q 13 58.9 12.45 59.25 Q 11.9 59.6 11.4 60 Q 10.4 60.7 9.5 61.15 Q 8.6 61.6 7.2 61.4 Q 6 61.2 5.15 60.35 Q 4.3 59.5 3.2 59.2 Q 2.8 57.2 1.95 55.65 Q 1.1 54.1 0 53.1 Q 0.4 52.7 0.45 52.55 L 0.6 52.1 L 0.6 51.75 Q 0.6 51.5 0.7 51.2 Q 1.9 50.9 3 51.1 Q 4.1 51.3 5.1 51.6 Q 6.1 51.9 7.05 52.05 Q 8 52.2 9 52.1 Q 11.9 49.2 14.25 45.65 Q 16.6 42.1 18.5 38.1 Q 16.9 37.9 15.4 36.75 Q 13.9 35.6 12.4 35.2 Q 12.3 35.2 12 35.4 Q 11.4 35.8 11.1 35.6 Q 9.9 35.1 9 33.95 Q 8.1 32.8 7 32.3 Q 6.2 31.8 5 31.7 Q 3.8 31.6 2.85 31.05 Q 1.9 30.5 1.6 28.9 Q 2.5 28.5 3.6 28.45 Q 4.7 28.4 5.8 28.5 Q 6.6 28.5 7.3 28.55 Q 8 28.6 8.6 28.4 Q 10.8 25.3 12 22.25 Q 13.2 19.2 14.2 15.95 Q 15.2 12.7 16.6 9 Q 16.2 8.2 15.5 7.65 Q 14.8 7.1 14 6.7 Q 12.8 5.9 11.95 5 Q 11.1 4.1 11.8 2.3 Q 12.2 2.7 12.5 2.75 Q 12.8 2.8 13.1 2.8 Q 13.7 2.7 14.1 3 Q 16.2 1.5 18.5 1.85 Q 20.8 2.2 22.8 3.6 Q 24.8 5 25.9 6.9 Q 22.6 11.9 20.15 17.85 Q 17.7 23.8 15.6 30.1 Q 16.2 31.2 17.25 31.75 Q 18.3 32.3 19.4 32.85 Q 20.5 33.4 21.1 34.6 Q 23.9 30.5 26.25 25.95 Q 28.6 21.4 31.1 17.1 Q 31.1 16.4 30.85 16 Q 30.6 15.6 30.4 15.3 Q 30.1 14.8 29.85 14.3 Q 29.6 13.8 29.7 12.9 Q 30.3 12.6 30.3 11.8 Q 32.5 11.5 34.65 12.75 Q 36.8 14 38.1 15.9 Q 39.4 17.8 39.15 19.5 Q 38.9 21.2 36.2 22 Q 34.4 25.9 32.25 29.4 Q 30.1 32.9 27.8 36.3 Q 30.3 38.2 32.75 40.05 Q 35.2 41.9 37 44.5 Q 36.9 45.6 37.05 46.6 Q 37.2 47.6 37.4 48.7 Q 37.7 49.9 37.9 51.3 Q 38.1 52.7 37.9 54.5 Z M 469.9 67.5 Q 470.5 68.6 470.55 71.1 Q 470.6 73.6 470.25 76.05 Q 469.9 78.5 469.1 79.7 Q 465.9 79.3 462.55 79.45 Q 459.2 79.6 456 79.9 Q 454.3 80 452.65 80.15 Q 451 80.3 449.4 80.3 Q 449.4 79.9 449.35 79.45 Q 449.3 79 449.3 78.6 Q 449.1 77.2 449.05 75.75 Q 449 74.3 449.3 72.9 Q 452 73.5 455.7 73.3 Q 459.4 73.1 463 72.7 L 465 72.5 Q 466 72.4 466.9 72.3 Q 466.9 71.9 466.2 71.9 Q 465.8 72 465.55 71.9 Q 465.3 71.8 465.5 71.3 Q 465.8 71.6 466.4 71.65 Q 467 71.7 467.6 71.6 Q 467.2 70.8 466.2 69.75 Q 465.2 68.7 463.5 69.3 Q 461.5 67.7 459.2 67.7 Q 456.9 67.7 454.4 68.1 Q 453.2 68.3 452 68.4 Q 450.8 68.5 449.6 68.5 Q 449.4 64.8 450.2 62.1 Q 452.8 62.4 455.1 62.15 Q 457.4 61.9 459.7 61.6 Q 461.5 61.3 463.4 61.05 Q 465.3 60.8 467.4 60.8 Q 466.6 59.7 464.45 58.3 Q 462.3 56.9 459.5 56.5 Q 458.1 56.3 456.6 56.5 Q 455.1 56.7 453.7 56.9 Q 452.8 57 451.85 57.15 Q 450.9 57.3 450.1 57.3 Q 449.9 55.6 449.9 54.3 Q 449.9 53 450.3 50.9 Q 454.2 49.5 459.05 49.2 Q 463.9 48.9 467.9 48.2 Q 469.1 51 469.25 54.25 Q 469.4 57.5 469.3 60.9 L 469.3 64.7 Q 469.3 66.6 469.5 68.5 Q 469.8 68.4 469.85 67.95 L 469.9 67.5 Z M 484.1 49.3 Q 483.4 50.1 481.6 50.9 Q 479.8 51.7 478.1 53.5 Q 478.1 55.9 478.15 58.2 Q 478.2 60.5 478.2 62.7 Q 478.3 69.1 478.15 75.1 Q 478 81.1 476.3 88 Q 475.4 88.9 474.2 88.55 Q 473 88.2 472.2 87.4 Q 472.2 86.9 471.95 86.65 L 471.5 86.2 Q 471.2 85.9 470.95 85.55 Q 470.7 85.2 470.8 84.4 Q 469 84.5 467.3 84.6 Q 465.6 84.7 464 84.8 Q 460.6 85 457.3 85.15 Q 454 85.3 450.5 85.1 Q 449.7 85.8 449 86.2 Q 448.3 86.6 447.2 86.5 Q 445.4 84.7 443.7 82.7 Q 442 80.7 440.9 78.1 Q 442.3 72.7 442.9 66.4 Q 443.5 60.1 443.6 53.4 Q 443.2 52.9 442.6 52.45 Q 442 52 441.3 51.5 Q 439.9 50.6 438.8 49.45 Q 437.7 48.3 438 46.4 Q 438.5 46.6 439.9 46.7 Q 441.3 46.8 441.8 45.6 Q 444.8 45.9 448 45.5 Q 451.2 45.1 454.5 44.5 Q 458 43.9 461.7 43.4 Q 465.4 42.9 469.5 43.1 Q 472.7 43.2 476.15 43.95 Q 479.6 44.7 482.4 46.6 Q 481.9 47.1 482.2 47.45 Q 482.5 47.8 482.9 48.1 Q 483.3 48.3 483.65 48.6 Q 484 48.9 484.1 49.3 Z M 92.2 60 Q 91.4 60.8 90.6 60.95 Q 89.8 61.1 89 61.1 Q 88.4 61.1 87.75 61.2 Q 87.1 61.3 86.5 61.7 Q 85.3 62.6 84.65 64.75 Q 84 66.9 83.65 69.6 Q 83.3 72.3 83 74.75 Q 82.7 77.2 82.1 78.6 Q 82 78.8 81.7 78.85 Q 81.4 78.9 81.5 78.7 Q 81.3 79.5 81.15 80.4 Q 81 81.3 80.5 81.7 Q 81.9 82.3 83.05 83.15 Q 84.2 84 84.6 85.1 Q 81.8 86.2 78 86.2 Q 74.2 86.2 70.3 86.1 Q 66.4 85.9 62.7 85.9 Q 59 85.9 56.2 86.9 Q 55.8 86.4 55.05 86.35 Q 54.3 86.3 53.8 85.9 Q 53.4 86.2 53.35 86.5 Q 53.3 86.8 53.4 87.1 Q 53.5 87.3 53.55 87.55 Q 53.6 87.8 53.6 88.2 L 53.4 88.2 Q 52.6 88.2 52.6 88.6 Q 49.7 88.4 47.9 86.4 Q 46.1 84.4 44.1 82.3 Q 44.4 80.4 44.4 78.85 Q 44.4 77.3 44.3 75.6 Q 44.3 74.7 44.25 73.8 Q 44.2 72.9 44.2 71.9 Q 44.3 71.8 44.5 71.7 Q 44.9 71.4 45.2 71.5 Q 44.9 69.8 44.2 68.9 Q 44.8 65.6 43.5 63.65 Q 42.2 61.7 40.5 60 Q 40 59.5 39.5 58.95 Q 39 58.4 38.6 57.9 Q 39.4 57.9 39.4 57.05 Q 39.4 56.2 39.9 55.9 Q 40.4 55.8 40.85 56 Q 41.3 56.2 41.6 56.4 L 42.2 56.7 Q 45.7 55.2 50.15 54.7 Q 54.6 54.2 57.6 54.7 Q 59.7 53.7 61.85 53.65 Q 64 53.6 66.2 53.7 Q 68.7 53.8 71.1 53.7 Q 73.5 53.6 75.6 52 Q 76.1 52 76.5 52.05 Q 76.9 52.1 77.4 52.2 Q 78 52.4 78.65 52.45 Q 79.3 52.5 80 52.3 Q 81.7 53.6 83.3 53.95 Q 84.9 54.3 87 54.8 Q 86.9 56 87.8 56.75 Q 88.7 57.5 89.8 58.2 Q 90.5 58.6 91.15 59.05 Q 91.8 59.5 92.2 60 Z M 473.4 16.3 Q 473.9 19.6 473.65 22.75 Q 473.4 25.9 473 29 Q 472.8 30.6 472.65 32.2 Q 472.5 33.8 472.4 35.3 Q 466.9 35.4 459.75 35.95 Q 452.6 36.5 446 37.1 Q 446.2 36.4 446.2 35.5 L 446.2 33.7 Q 446.2 32.6 446.25 31.65 Q 446.3 30.7 446.6 30 Q 452.8 29.6 459.45 29.05 Q 466.1 28.5 471.6 27.2 Q 470.2 26 467.6 24.55 Q 465 23.1 462 23 Q 460.4 22.9 458.8 23.25 Q 457.2 23.6 455.5 24 Q 453.1 24.6 450.55 24.95 Q 448 25.3 445.5 24.6 Q 445.3 24.1 445.4 23.55 Q 445.5 23 445.6 22.4 Q 445.8 21.6 445.9 20.7 Q 446 19.8 445.4 18.8 Q 451.5 17.1 459 16.3 Q 466.5 15.5 473.4 16.3 Z M 74.4 58.9 Q 72.4 57.9 70.1 57.95 Q 67.8 58 65.1 58.2 Q 64.4 58.3 63.6 58.35 Q 62.8 58.4 62 58.5 Q 59.6 58.6 56.3 59.15 Q 53 59.7 50.7 61 Q 51.6 62.9 51.7 66 Q 51.8 69.1 51.8 72.3 Q 51.7 74.6 51.75 76.75 Q 51.8 78.9 52.1 80.5 Q 55.4 80.9 57.9 81 Q 60.4 81.1 62.9 81 Q 65.4 80.9 68.6 80.6 Q 69.3 80.6 70 80.55 Q 70.7 80.5 71.5 80.4 Q 73.3 75.7 73.7 70.5 Q 74.1 65.3 74.4 58.9 Z M 253.7 48.9 Q 253.5 54.7 251.75 59.05 Q 250 63.4 247.8 67.4 Q 244.7 65.7 241.45 64.5 Q 238.2 63.3 234.5 61.8 Q 234.3 61.5 234.4 61.15 Q 234.5 60.8 234.6 60.5 Q 234.9 59.7 234.4 59.4 Q 234.5 59 234.8 59.2 Q 235.2 59.5 235.5 59.1 Q 235.8 57.1 236.5 54.65 Q 237.2 52.2 238.8 49.5 Q 242.4 49 246.15 48.65 Q 249.9 48.3 253.7 48.9 Z M 158.8 44.5 Q 157.7 44.4 156.65 44.05 Q 155.6 43.7 154.7 43.3 Q 153.2 42.7 151.65 42.3 Q 150.1 41.9 148.4 42.3 Q 147.7 42.5 146.95 42.95 Q 146.2 43.4 145.4 43.9 Q 143.9 44.9 142.2 45.75 Q 140.5 46.6 138.7 46 Q 138.9 43.8 139.05 41.35 Q 139.2 38.9 139.5 36.3 Q 142.5 34.3 146.65 33.65 Q 150.8 33 154.8 32.3 Q 156.3 34.7 156.9 38.25 Q 157.5 41.8 158.8 44.5 Z M 148.5 52 Q 148.5 54.7 148.4 57.1 Q 148.3 59.5 148.1 61.7 Q 147.7 65.6 146.65 68.65 Q 145.6 71.7 143.6 73.9 Q 141.1 73.3 139.45 71.75 Q 137.8 70.2 135.6 69.2 Q 136.5 67.1 137.05 64.25 Q 137.6 61.4 137.9 58.4 Q 138.2 55.4 138.4 53.1 Q 139.5 53 140.8 52.35 Q 142.1 51.7 143.4 51.2 Q 144.9 50.5 146.3 50.45 Q 147.7 50.4 148.5 52 Z M 14.8 90.3 Q 12 90.7 10.35 89.85 Q 8.7 89 7 87 Q 5.7 85.5 5.3 84.2 Q 4.9 82.9 4.65 81.2 Q 4.4 79.5 3.5 76.8 Q 3.2 75.6 2.7 74.6 L 1.7 72.6 Q 1 71.3 0.55 70.15 Q 0.1 69 0.3 68.1 Q 4.9 68.4 7.8 71.65 Q 10.7 74.9 12.35 79.85 Q 14 84.8 14.8 90.3 Z M 182 22.6 Q 182.2 23.7 182.05 24.2 Q 181.9 24.7 181.6 25.1 Q 181.4 25.3 181.3 25.5 Q 181.2 25.7 181.1 26.1 Q 178.3 26.8 176.35 25.7 Q 174.4 24.6 172.8 22.6 Q 170.9 20.1 169.2 17.15 Q 167.5 14.2 165.2 12.6 Q 165.3 12.3 165.55 12.3 Q 165.8 12.3 165.8 11.9 Q 168.3 11.8 171.6 13.05 Q 174.9 14.3 177.6 16.4 Q 179.3 17.7 180.45 19.3 Q 181.6 20.9 182 22.6 Z M 26 83.5 Q 24.1 84.1 22.6 82.9 Q 21.1 81.7 19.5 80 Q 19.1 79.5 18.6 79 L 17.6 78 Q 17.5 75.1 16.5 71.9 Q 15.5 68.7 14.7 65.8 Q 14.6 65.1 15 65 Q 18.3 65.4 20.75 68.45 Q 23.2 71.5 24.6 75.6 Q 26 79.7 26 83.5 Z M 425.3 30.7 Q 427.2 34.6 427.45 39.05 Q 427.7 43.5 426.6 47.9 Q 425.6 48.8 424.35 48.7 Q 423.1 48.6 422.3 48.4 Q 421.9 48.3 421.8 48.3 Q 422.3 46.4 422.3 44.3 L 422.3 40 Q 422.2 37.6 422.25 35.25 Q 422.3 32.9 422.9 30.7 L 425.3 30.7 Z M 38.3 77.4 Q 34.7 78 32.75 76.7 Q 30.8 75.4 29.85 72.95 Q 28.9 70.5 28.2 67.7 Q 27.8 66.3 27.45 65 Q 27.1 63.7 26.6 62.4 Q 27.9 61.9 29.85 63 Q 31.8 64.1 33.75 66.35 Q 35.7 68.6 37 71.5 Q 38.3 74.4 38.3 77.4 Z M 29 47.8 Q 27 48.9 24 49.6 Q 21 50.3 18.7 50.4 Q 20.1 49 21.55 46.8 Q 23 44.6 23.3 43 Q 24.2 42.7 25.15 41 Q 26.1 39.3 26.8 37.9 Q 27.9 38.8 28.4 40.7 Q 28.9 42.6 29 44.55 Q 29.1 46.5 29 47.8 Z M 161.9 66.6 Q 161.6 67.1 161.05 68.45 Q 160.5 69.8 159.85 71 Q 159.2 72.2 158.6 72.4 Q 158.6 72.3 158.7 72 Q 159 71.2 159.45 69.9 Q 159.9 68.6 160.5 67.6 Q 161.1 66.6 161.9 66.6 Z M 308.1 53.1 Q 307.7 53.5 306.7 54.45 Q 305.7 55.4 304.9 55.4 Q 305.1 55.1 305.5 54.7 Q 306.2 54.1 305.9 53.6 Q 306 53.5 306.3 53.4 Q 306.9 53.2 307.4 53.05 Q 307.9 52.9 308.1 53.1 Z" vector-effect="non-scaling-stroke"/></g></svg>